<svg width="20" height="24" viewBox="0 0 20 24" fill="none" xmlns="http://www.w3.org/2000/svg">
<path d="M8.5 12C8.76522 12 9.01957 12.1054 9.20711 12.2929C9.39464 12.4804 9.5 12.7348 9.5 13C9.5 13.2652 9.39464 13.5196 9.20711 13.7071C9.01957 13.8946 8.76522 14 8.5 14H5.5C5.23478 14 4.98043 13.8946 4.79289 13.7071C4.60536 13.5196 4.5 13.2652 4.5 13C4.5 12.7348 4.60536 12.4804 4.79289 12.2929C4.98043 12.1054 5.23478 12 5.5 12H8.5ZM14.5 9C14.5 8.73478 14.3946 8.48043 14.2071 8.29289C14.0196 8.10536 13.7652 8 13.5 8H5.5C5.23478 8 4.98043 8.10536 4.79289 8.29289C4.60536 8.48043 4.5 8.73478 4.5 9C4.5 9.26522 4.60536 9.51957 4.79289 9.70711C4.98043 9.89464 5.23478 10 5.5 10H13.5C13.7652 10 14.0196 9.89464 14.2071 9.70711C14.3946 9.51957 14.5 9.26522 14.5 9ZM5.5 6H13.5C13.7652 6 14.0196 5.89464 14.2071 5.70711C14.3946 5.51957 14.5 5.26522 14.5 5C14.5 4.73478 14.3946 4.48043 14.2071 4.29289C14.0196 4.10536 13.7652 4 13.5 4H5.5C5.23478 4 4.98043 4.10536 4.79289 4.29289C4.60536 4.48043 4.5 4.73478 4.5 5C4.5 5.26522 4.60536 5.51957 4.79289 5.70711C4.98043 5.89464 5.23478 6 5.5 6ZM17.5 19.444V23.277C17.5001 23.4197 17.4578 23.5591 17.3786 23.6777C17.2994 23.7964 17.1868 23.8888 17.055 23.9434C16.9232 23.998 16.7781 24.0123 16.6382 23.9845C16.4983 23.9566 16.3698 23.8879 16.269 23.787L15.5 23.019L14.731 23.787C14.6302 23.8879 14.5017 23.9566 14.3618 23.9845C14.2219 24.0123 14.0768 23.998 13.945 23.9434C13.8132 23.8888 13.7006 23.7964 13.6214 23.6777C13.5422 23.5591 13.4999 23.4197 13.5 23.277V19.444C12.7373 19.0058 12.141 18.3277 11.8038 17.5154C11.4666 16.703 11.4076 15.8019 11.6358 14.9525C11.864 14.103 12.3667 13.3529 13.0656 12.8189C13.7646 12.2849 14.6204 11.997 15.5 12C15.838 12.0042 16.1741 12.0519 16.5 12.142V5C16.5 4.20435 16.1839 3.44129 15.6213 2.87868C15.0587 2.31607 14.2956 2 13.5 2H5.5C4.70435 2 3.94129 2.31607 3.37868 2.87868C2.81607 3.44129 2.5 4.20435 2.5 5V17C2.5 17.7956 2.81607 18.5587 3.37868 19.1213C3.94129 19.6839 4.70435 20 5.5 20H10.5C10.7652 20 11.0196 20.1054 11.2071 20.2929C11.3946 20.4804 11.5 20.7348 11.5 21C11.5 21.2652 11.3946 21.5196 11.2071 21.7071C11.0196 21.8946 10.7652 22 10.5 22H5.5C4.1744 21.9984 2.90356 21.4711 1.96622 20.5338C1.02888 19.5964 0.501588 18.3256 0.5 17V5C0.501588 3.6744 1.02888 2.40356 1.96622 1.46622C2.90356 0.528882 4.1744 0.00158786 5.5 0L13.5 0C14.8256 0.00158786 16.0964 0.528882 17.0338 1.46622C17.9711 2.40356 18.4984 3.6744 18.5 5V13.382C18.8917 13.8219 19.1801 14.3438 19.344 14.9096C19.5079 15.4753 19.5433 16.0706 19.4474 16.6518C19.3515 17.2329 19.1269 17.7853 18.7899 18.2684C18.453 18.7516 18.0122 19.1532 17.5 19.444V19.444ZM17.5 16C17.5 15.6044 17.3827 15.2178 17.1629 14.8889C16.9432 14.56 16.6308 14.3036 16.2654 14.1522C15.8999 14.0009 15.4978 13.9613 15.1098 14.0384C14.7219 14.1156 14.3655 14.3061 14.0858 14.5858C13.8061 14.8655 13.6156 15.2219 13.5384 15.6098C13.4613 15.9978 13.5009 16.3999 13.6522 16.7654C13.8036 17.1308 14.06 17.4432 14.3889 17.6629C14.7178 17.8827 15.1044 18 15.5 18C16.0304 18 16.5391 17.7893 16.9142 17.4142C17.2893 17.0391 17.5 16.5304 17.5 16Z" fill="#266AEB"/>
</svg>
