<svg width="59" height="58" viewBox="0 0 59 58" fill="none" xmlns="http://www.w3.org/2000/svg">
<rect x="0.5" width="58" height="58" rx="16" fill="white"/>
<g clip-path="url(#clip0_1802_449)">
<path d="M28.5 29C28.7652 29 29.0196 29.1054 29.2071 29.2929C29.3946 29.4804 29.5 29.7348 29.5 30C29.5 30.2652 29.3946 30.5196 29.2071 30.7071C29.0196 30.8946 28.7652 31 28.5 31H25.5C25.2348 31 24.9804 30.8946 24.7929 30.7071C24.6054 30.5196 24.5 30.2652 24.5 30C24.5 29.7348 24.6054 29.4804 24.7929 29.2929C24.9804 29.1054 25.2348 29 25.5 29H28.5ZM34.5 26C34.5 25.7348 34.3946 25.4804 34.2071 25.2929C34.0196 25.1054 33.7652 25 33.5 25H25.5C25.2348 25 24.9804 25.1054 24.7929 25.2929C24.6054 25.4804 24.5 25.7348 24.5 26C24.5 26.2652 24.6054 26.5196 24.7929 26.7071C24.9804 26.8946 25.2348 27 25.5 27H33.5C33.7652 27 34.0196 26.8946 34.2071 26.7071C34.3946 26.5196 34.5 26.2652 34.5 26ZM25.5 23H33.5C33.7652 23 34.0196 22.8946 34.2071 22.7071C34.3946 22.5196 34.5 22.2652 34.5 22C34.5 21.7348 34.3946 21.4804 34.2071 21.2929C34.0196 21.1054 33.7652 21 33.5 21H25.5C25.2348 21 24.9804 21.1054 24.7929 21.2929C24.6054 21.4804 24.5 21.7348 24.5 22C24.5 22.2652 24.6054 22.5196 24.7929 22.7071C24.9804 22.8946 25.2348 23 25.5 23ZM37.5 36.444V40.277C37.5001 40.4197 37.4578 40.5591 37.3786 40.6777C37.2994 40.7964 37.1868 40.8888 37.055 40.9434C36.9232 40.998 36.7781 41.0123 36.6382 40.9845C36.4983 40.9566 36.3698 40.8879 36.269 40.787L35.5 40.019L34.731 40.787C34.6302 40.8879 34.5017 40.9566 34.3618 40.9845C34.2219 41.0123 34.0768 40.998 33.945 40.9434C33.8132 40.8888 33.7006 40.7964 33.6214 40.6777C33.5422 40.5591 33.4999 40.4197 33.5 40.277V36.444C32.7373 36.0058 32.141 35.3277 31.8038 34.5154C31.4666 33.703 31.4076 32.8019 31.6358 31.9525C31.864 31.103 32.3667 30.3529 33.0656 29.8189C33.7646 29.2849 34.6204 28.997 35.5 29C35.838 29.0042 36.1741 29.0519 36.5 29.142V22C36.5 21.2044 36.1839 20.4413 35.6213 19.8787C35.0587 19.3161 34.2956 19 33.5 19H25.5C24.7044 19 23.9413 19.3161 23.3787 19.8787C22.8161 20.4413 22.5 21.2044 22.5 22V34C22.5 34.7956 22.8161 35.5587 23.3787 36.1213C23.9413 36.6839 24.7044 37 25.5 37H30.5C30.7652 37 31.0196 37.1054 31.2071 37.2929C31.3946 37.4804 31.5 37.7348 31.5 38C31.5 38.2652 31.3946 38.5196 31.2071 38.7071C31.0196 38.8946 30.7652 39 30.5 39H25.5C24.1744 38.9984 22.9036 38.4711 21.9662 37.5338C21.0289 36.5964 20.5016 35.3256 20.5 34V22C20.5016 20.6744 21.0289 19.4036 21.9662 18.4662C22.9036 17.5289 24.1744 17.0016 25.5 17H33.5C34.8256 17.0016 36.0964 17.5289 37.0338 18.4662C37.9711 19.4036 38.4984 20.6744 38.5 22V30.382C38.8917 30.8219 39.1801 31.3438 39.344 31.9096C39.5079 32.4753 39.5433 33.0706 39.4474 33.6518C39.3515 34.2329 39.1269 34.7853 38.7899 35.2684C38.453 35.7516 38.0122 36.1532 37.5 36.444V36.444ZM37.5 33C37.5 32.6044 37.3827 32.2178 37.1629 31.8889C36.9432 31.56 36.6308 31.3036 36.2654 31.1522C35.8999 31.0009 35.4978 30.9613 35.1098 31.0384C34.7219 31.1156 34.3655 31.3061 34.0858 31.5858C33.8061 31.8655 33.6156 32.2219 33.5384 32.6098C33.4613 32.9978 33.5009 33.3999 33.6522 33.7654C33.8036 34.1308 34.06 34.4432 34.3889 34.6629C34.7178 34.8827 35.1044 35 35.5 35C36.0304 35 36.5391 34.7893 36.9142 34.4142C37.2893 34.0391 37.5 33.5304 37.5 33Z" fill="#266AEB"/>
</g>
<defs>
<clipPath id="clip0_1802_449">
<rect width="24" height="24" fill="white" transform="translate(17.5 17)"/>
</clipPath>
</defs>
</svg>
