<svg width="97" height="937" viewBox="0 0 97 937" fill="none" xmlns="http://www.w3.org/2000/svg">
<rect width="97" height="937" rx="16" fill="#266AEB"/>
<g clip-path="url(#clip0_0_808)">
<path d="M55.5953 39.8557L62.6434 39.8557L62.6434 51.2977L51.1995 51.2977L51.1995 48.7199L57.5138 42.3999L57.8302 42.0903L55.5953 39.8557Z" fill="white"/>
<path d="M48.5 34L56.5916 42.0902L48.5 50.1804L46.6757 48.3564L46.6757 38.9806L43.5186 38.9806L48.5 34Z" fill="white"/>
<path d="M34.3566 39.8557L34.3566 46.9027L36.2819 44.9777L36.5916 44.6681L43.2223 51.2977L45.8006 51.2977L45.8006 39.8557L34.3566 39.8557Z" fill="white"/>
<path d="M28.5 53.9967L36.5916 45.9065L44.6831 53.9967L42.8588 55.8207L33.4882 55.8207L33.4882 58.9773L28.5 53.9967Z" fill="white"/>
<path d="M34.3566 68.1376L34.3634 56.6956L45.8006 56.6956L45.8006 59.2801L39.4795 65.5934L39.1766 65.903L39.4795 66.2126L41.4048 68.1376L34.3566 68.1376Z" fill="white"/>
<path d="M48.5 74.0001L40.4084 65.9032L48.5 57.813L50.3243 59.637L50.3243 69.0127L53.4882 69.0127L48.5 74.0001Z" fill="white"/>
<path d="M62.6434 68.1376L51.1927 68.1376L51.1994 56.6956L53.7777 56.6956L60.0988 63.0156L60.4084 63.3252L60.7181 63.0156L62.6434 61.0906L62.6434 68.1376Z" fill="white"/>
<path d="M60.4084 62.087L52.3169 53.9968L54.1412 52.1728L63.5185 52.1728L63.5185 49.0161L68.5 53.9968L60.4084 62.087Z" fill="white"/>
</g>
<g clip-path="url(#clip1_0_808)">
<path d="M55.5 152H51.5V151C51.5 150.204 51.1839 149.441 50.6213 148.879C50.0587 148.316 49.2956 148 48.5 148C47.7044 148 46.9413 148.316 46.3787 148.879C45.8161 149.441 45.5 150.204 45.5 151V152H41.5C40.1744 152.002 38.9036 152.529 37.9662 153.466C37.0289 154.404 36.5016 155.674 36.5 157V167C36.5016 168.326 37.0289 169.596 37.9662 170.534C38.9036 171.471 40.1744 171.998 41.5 172H55.5C56.8256 171.998 58.0964 171.471 59.0338 170.534C59.9711 169.596 60.4984 168.326 60.5 167V157C60.4984 155.674 59.9711 154.404 59.0338 153.466C58.0964 152.529 56.8256 152.002 55.5 152ZM47.5 151C47.5 150.735 47.6054 150.48 47.7929 150.293C47.9804 150.105 48.2348 150 48.5 150C48.7652 150 49.0196 150.105 49.2071 150.293C49.3946 150.48 49.5 150.735 49.5 151V153C49.5 153.265 49.3946 153.52 49.2071 153.707C49.0196 153.895 48.7652 154 48.5 154C48.2348 154 47.9804 153.895 47.7929 153.707C47.6054 153.52 47.5 153.265 47.5 153V151ZM58.5 167C58.5 167.796 58.1839 168.559 57.6213 169.121C57.0587 169.684 56.2956 170 55.5 170H41.5C40.7044 170 39.9413 169.684 39.3787 169.121C38.8161 168.559 38.5 167.796 38.5 167V157C38.5 156.204 38.8161 155.441 39.3787 154.879C39.9413 154.316 40.7044 154 41.5 154H45.684C45.8876 154.585 46.2682 155.091 46.7727 155.45C47.2773 155.808 47.881 156.001 48.5 156.001C49.119 156.001 49.7227 155.808 50.2273 155.45C50.7318 155.091 51.1124 154.585 51.316 154H55.5C56.2956 154 57.0587 154.316 57.6213 154.879C58.1839 155.441 58.5 156.204 58.5 157V167ZM46.5 158H41.5C41.2348 158 40.9804 158.105 40.7929 158.293C40.6054 158.48 40.5 158.735 40.5 159V167C40.5 167.265 40.6054 167.52 40.7929 167.707C40.9804 167.895 41.2348 168 41.5 168H46.5C46.7652 168 47.0196 167.895 47.2071 167.707C47.3946 167.52 47.5 167.265 47.5 167V159C47.5 158.735 47.3946 158.48 47.2071 158.293C47.0196 158.105 46.7652 158 46.5 158ZM45.5 166H42.5V160H45.5V166ZM56.5 163C56.5 163.265 56.3946 163.52 56.2071 163.707C56.0196 163.895 55.7652 164 55.5 164H50.5C50.2348 164 49.9804 163.895 49.7929 163.707C49.6054 163.52 49.5 163.265 49.5 163C49.5 162.735 49.6054 162.48 49.7929 162.293C49.9804 162.105 50.2348 162 50.5 162H55.5C55.7652 162 56.0196 162.105 56.2071 162.293C56.3946 162.48 56.5 162.735 56.5 163ZM56.5 159C56.5 159.265 56.3946 159.52 56.2071 159.707C56.0196 159.895 55.7652 160 55.5 160H50.5C50.2348 160 49.9804 159.895 49.7929 159.707C49.6054 159.52 49.5 159.265 49.5 159C49.5 158.735 49.6054 158.48 49.7929 158.293C49.9804 158.105 50.2348 158 50.5 158H55.5C55.7652 158 56.0196 158.105 56.2071 158.293C56.3946 158.48 56.5 158.735 56.5 159ZM54.5 167C54.5 167.265 54.3946 167.52 54.2071 167.707C54.0196 167.895 53.7652 168 53.5 168H50.5C50.2348 168 49.9804 167.895 49.7929 167.707C49.6054 167.52 49.5 167.265 49.5 167C49.5 166.735 49.6054 166.48 49.7929 166.293C49.9804 166.105 50.2348 166 50.5 166H53.5C53.7652 166 54.0196 166.105 54.2071 166.293C54.3946 166.48 54.5 166.735 54.5 167Z" fill="white"/>
</g>
<path d="M44.5 215H40.5C39.7044 215 38.9413 214.684 38.3787 214.121C37.8161 213.559 37.5 212.796 37.5 212V208C37.5 207.204 37.8161 206.441 38.3787 205.879C38.9413 205.316 39.7044 205 40.5 205H44.5C45.2956 205 46.0587 205.316 46.6213 205.879C47.1839 206.441 47.5 207.204 47.5 208V212C47.5 212.796 47.1839 213.559 46.6213 214.121C46.0587 214.684 45.2956 215 44.5 215ZM40.5 207C40.2348 207 39.9804 207.105 39.7929 207.293C39.6054 207.48 39.5 207.735 39.5 208V212C39.5 212.265 39.6054 212.52 39.7929 212.707C39.9804 212.895 40.2348 213 40.5 213H44.5C44.7652 213 45.0196 212.895 45.2071 212.707C45.3946 212.52 45.5 212.265 45.5 212V208C45.5 207.735 45.3946 207.48 45.2071 207.293C45.0196 207.105 44.7652 207 44.5 207H40.5ZM56.5 215H52.5C51.7044 215 50.9413 214.684 50.3787 214.121C49.8161 213.559 49.5 212.796 49.5 212V208C49.5 207.204 49.8161 206.441 50.3787 205.879C50.9413 205.316 51.7044 205 52.5 205H56.5C57.2956 205 58.0587 205.316 58.6213 205.879C59.1839 206.441 59.5 207.204 59.5 208V212C59.5 212.796 59.1839 213.559 58.6213 214.121C58.0587 214.684 57.2956 215 56.5 215ZM52.5 207C52.2348 207 51.9804 207.105 51.7929 207.293C51.6054 207.48 51.5 207.735 51.5 208V212C51.5 212.265 51.6054 212.52 51.7929 212.707C51.9804 212.895 52.2348 213 52.5 213H56.5C56.7652 213 57.0196 212.895 57.2071 212.707C57.3946 212.52 57.5 212.265 57.5 212V208C57.5 207.735 57.3946 207.48 57.2071 207.293C57.0196 207.105 56.7652 207 56.5 207H52.5ZM44.5 227H40.5C39.7044 227 38.9413 226.684 38.3787 226.121C37.8161 225.559 37.5 224.796 37.5 224V220C37.5 219.204 37.8161 218.441 38.3787 217.879C38.9413 217.316 39.7044 217 40.5 217H44.5C45.2956 217 46.0587 217.316 46.6213 217.879C47.1839 218.441 47.5 219.204 47.5 220V224C47.5 224.796 47.1839 225.559 46.6213 226.121C46.0587 226.684 45.2956 227 44.5 227ZM40.5 219C40.2348 219 39.9804 219.105 39.7929 219.293C39.6054 219.48 39.5 219.735 39.5 220V224C39.5 224.265 39.6054 224.52 39.7929 224.707C39.9804 224.895 40.2348 225 40.5 225H44.5C44.7652 225 45.0196 224.895 45.2071 224.707C45.3946 224.52 45.5 224.265 45.5 224V220C45.5 219.735 45.3946 219.48 45.2071 219.293C45.0196 219.105 44.7652 219 44.5 219H40.5ZM56.5 227H52.5C51.7044 227 50.9413 226.684 50.3787 226.121C49.8161 225.559 49.5 224.796 49.5 224V220C49.5 219.204 49.8161 218.441 50.3787 217.879C50.9413 217.316 51.7044 217 52.5 217H56.5C57.2956 217 58.0587 217.316 58.6213 217.879C59.1839 218.441 59.5 219.204 59.5 220V224C59.5 224.796 59.1839 225.559 58.6213 226.121C58.0587 226.684 57.2956 227 56.5 227ZM52.5 219C52.2348 219 51.9804 219.105 51.7929 219.293C51.6054 219.48 51.5 219.735 51.5 220V224C51.5 224.265 51.6054 224.52 51.7929 224.707C51.9804 224.895 52.2348 225 52.5 225H56.5C56.7652 225 57.0196 224.895 57.2071 224.707C57.3946 224.52 57.5 224.265 57.5 224V220C57.5 219.735 57.3946 219.48 57.2071 219.293C57.0196 219.105 56.7652 219 56.5 219H52.5Z" fill="white"/>
<g clip-path="url(#clip2_0_808)">
<path d="M54.5 284H42.5C41.1744 283.998 39.9036 283.471 38.9662 282.534C38.0289 281.596 37.5016 280.326 37.5 279V265C37.5016 263.674 38.0289 262.404 38.9662 261.466C39.9036 260.529 41.1744 260.002 42.5 260H54.5C55.8256 260.002 57.0964 260.529 58.0338 261.466C58.9711 262.404 59.4984 263.674 59.5 265V279C59.4984 280.326 58.9711 281.596 58.0338 282.534C57.0964 283.471 55.8256 283.998 54.5 284ZM42.5 262C41.7044 262 40.9413 262.316 40.3787 262.879C39.8161 263.441 39.5 264.204 39.5 265V279C39.5 279.796 39.8161 280.559 40.3787 281.121C40.9413 281.684 41.7044 282 42.5 282H54.5C55.2956 282 56.0587 281.684 56.6213 281.121C57.1839 280.559 57.5 279.796 57.5 279V265C57.5 264.204 57.1839 263.441 56.6213 262.879C56.0587 262.316 55.2956 262 54.5 262H42.5ZM52.5 270H44.5C43.7044 270 42.9413 269.684 42.3787 269.121C41.8161 268.559 41.5 267.796 41.5 267C41.5 266.204 41.8161 265.441 42.3787 264.879C42.9413 264.316 43.7044 264 44.5 264H52.5C53.2956 264 54.0587 264.316 54.6213 264.879C55.1839 265.441 55.5 266.204 55.5 267C55.5 267.796 55.1839 268.559 54.6213 269.121C54.0587 269.684 53.2956 270 52.5 270ZM44.5 266C44.2348 266 43.9804 266.105 43.7929 266.293C43.6054 266.48 43.5 266.735 43.5 267C43.5 267.265 43.6054 267.52 43.7929 267.707C43.9804 267.895 44.2348 268 44.5 268H52.5C52.7652 268 53.0196 267.895 53.2071 267.707C53.3946 267.52 53.5 267.265 53.5 267C53.5 266.735 53.3946 266.48 53.2071 266.293C53.0196 266.105 52.7652 266 52.5 266H44.5ZM42.5 273C42.3022 273 42.1089 273.059 41.9444 273.169C41.78 273.278 41.6518 273.435 41.5761 273.617C41.5004 273.8 41.4806 274.001 41.5192 274.195C41.5578 274.389 41.653 274.567 41.7929 274.707C41.9327 274.847 42.1109 274.942 42.3049 274.981C42.4989 275.019 42.7 275 42.8827 274.924C43.0654 274.848 43.2216 274.72 43.3315 274.556C43.4414 274.391 43.5 274.198 43.5 274C43.5 273.735 43.3946 273.48 43.2071 273.293C43.0196 273.105 42.7652 273 42.5 273ZM46.5 273C46.3022 273 46.1089 273.059 45.9444 273.169C45.78 273.278 45.6518 273.435 45.5761 273.617C45.5004 273.8 45.4806 274.001 45.5192 274.195C45.5578 274.389 45.653 274.567 45.7929 274.707C45.9327 274.847 46.1109 274.942 46.3049 274.981C46.4989 275.019 46.7 275 46.8827 274.924C47.0654 274.848 47.2216 274.72 47.3315 274.556C47.4414 274.391 47.5 274.198 47.5 274C47.5 273.735 47.3946 273.48 47.2071 273.293C47.0196 273.105 46.7652 273 46.5 273ZM50.5 273C50.3022 273 50.1089 273.059 49.9444 273.169C49.78 273.278 49.6518 273.435 49.5761 273.617C49.5004 273.8 49.4806 274.001 49.5192 274.195C49.5578 274.389 49.653 274.567 49.7929 274.707C49.9327 274.847 50.1109 274.942 50.3049 274.981C50.4989 275.019 50.7 275 50.8827 274.924C51.0654 274.848 51.2216 274.72 51.3315 274.556C51.4414 274.391 51.5 274.198 51.5 274C51.5 273.735 51.3946 273.48 51.2071 273.293C51.0196 273.105 50.7652 273 50.5 273ZM42.5 277C42.3022 277 42.1089 277.059 41.9444 277.169C41.78 277.278 41.6518 277.435 41.5761 277.617C41.5004 277.8 41.4806 278.001 41.5192 278.195C41.5578 278.389 41.653 278.567 41.7929 278.707C41.9327 278.847 42.1109 278.942 42.3049 278.981C42.4989 279.019 42.7 279 42.8827 278.924C43.0654 278.848 43.2216 278.72 43.3315 278.556C43.4414 278.391 43.5 278.198 43.5 278C43.5 277.735 43.3946 277.48 43.2071 277.293C43.0196 277.105 42.7652 277 42.5 277ZM46.5 277C46.3022 277 46.1089 277.059 45.9444 277.169C45.78 277.278 45.6518 277.435 45.5761 277.617C45.5004 277.8 45.4806 278.001 45.5192 278.195C45.5578 278.389 45.653 278.567 45.7929 278.707C45.9327 278.847 46.1109 278.942 46.3049 278.981C46.4989 279.019 46.7 279 46.8827 278.924C47.0654 278.848 47.2216 278.72 47.3315 278.556C47.4414 278.391 47.5 278.198 47.5 278C47.5 277.735 47.3946 277.48 47.2071 277.293C47.0196 277.105 46.7652 277 46.5 277ZM54.5 273C54.3022 273 54.1089 273.059 53.9444 273.169C53.78 273.278 53.6518 273.435 53.5761 273.617C53.5004 273.8 53.4806 274.001 53.5192 274.195C53.5578 274.389 53.653 274.567 53.7929 274.707C53.9327 274.847 54.1109 274.942 54.3049 274.981C54.4989 275.019 54.7 275 54.8827 274.924C55.0654 274.848 55.2216 274.72 55.3315 274.556C55.4414 274.391 55.5 274.198 55.5 274C55.5 273.735 55.3946 273.48 55.2071 273.293C55.0196 273.105 54.7652 273 54.5 273ZM55.5 278C55.5 277.735 55.3946 277.48 55.2071 277.293C55.0196 277.105 54.7652 277 54.5 277H50.5C50.2348 277 49.9804 277.105 49.7929 277.293C49.6054 277.48 49.5 277.735 49.5 278C49.5 278.265 49.6054 278.52 49.7929 278.707C49.9804 278.895 50.2348 279 50.5 279H54.5C54.7652 279 55.0196 278.895 55.2071 278.707C55.3946 278.52 55.5 278.265 55.5 278Z" fill="white"/>
</g>
<rect x="19.5" y="316" width="58" height="58" rx="16" fill="white"/>
<g clip-path="url(#clip3_0_808)">
<path d="M47.5 345C47.7652 345 48.0196 345.105 48.2071 345.293C48.3946 345.48 48.5 345.735 48.5 346C48.5 346.265 48.3946 346.52 48.2071 346.707C48.0196 346.895 47.7652 347 47.5 347H44.5C44.2348 347 43.9804 346.895 43.7929 346.707C43.6054 346.52 43.5 346.265 43.5 346C43.5 345.735 43.6054 345.48 43.7929 345.293C43.9804 345.105 44.2348 345 44.5 345H47.5ZM53.5 342C53.5 341.735 53.3946 341.48 53.2071 341.293C53.0196 341.105 52.7652 341 52.5 341H44.5C44.2348 341 43.9804 341.105 43.7929 341.293C43.6054 341.48 43.5 341.735 43.5 342C43.5 342.265 43.6054 342.52 43.7929 342.707C43.9804 342.895 44.2348 343 44.5 343H52.5C52.7652 343 53.0196 342.895 53.2071 342.707C53.3946 342.52 53.5 342.265 53.5 342ZM44.5 339H52.5C52.7652 339 53.0196 338.895 53.2071 338.707C53.3946 338.52 53.5 338.265 53.5 338C53.5 337.735 53.3946 337.48 53.2071 337.293C53.0196 337.105 52.7652 337 52.5 337H44.5C44.2348 337 43.9804 337.105 43.7929 337.293C43.6054 337.48 43.5 337.735 43.5 338C43.5 338.265 43.6054 338.52 43.7929 338.707C43.9804 338.895 44.2348 339 44.5 339ZM56.5 352.444V356.277C56.5001 356.42 56.4578 356.559 56.3786 356.678C56.2994 356.796 56.1868 356.889 56.055 356.943C55.9232 356.998 55.7781 357.012 55.6382 356.984C55.4983 356.957 55.3698 356.888 55.269 356.787L54.5 356.019L53.731 356.787C53.6302 356.888 53.5017 356.957 53.3618 356.984C53.2219 357.012 53.0768 356.998 52.945 356.943C52.8132 356.889 52.7006 356.796 52.6214 356.678C52.5422 356.559 52.4999 356.42 52.5 356.277V352.444C51.7373 352.006 51.141 351.328 50.8038 350.515C50.4666 349.703 50.4076 348.802 50.6358 347.952C50.864 347.103 51.3667 346.353 52.0656 345.819C52.7646 345.285 53.6204 344.997 54.5 345C54.838 345.004 55.1741 345.052 55.5 345.142V338C55.5 337.204 55.1839 336.441 54.6213 335.879C54.0587 335.316 53.2956 335 52.5 335H44.5C43.7044 335 42.9413 335.316 42.3787 335.879C41.8161 336.441 41.5 337.204 41.5 338V350C41.5 350.796 41.8161 351.559 42.3787 352.121C42.9413 352.684 43.7044 353 44.5 353H49.5C49.7652 353 50.0196 353.105 50.2071 353.293C50.3946 353.48 50.5 353.735 50.5 354C50.5 354.265 50.3946 354.52 50.2071 354.707C50.0196 354.895 49.7652 355 49.5 355H44.5C43.1744 354.998 41.9036 354.471 40.9662 353.534C40.0289 352.596 39.5016 351.326 39.5 350V338C39.5016 336.674 40.0289 335.404 40.9662 334.466C41.9036 333.529 43.1744 333.002 44.5 333H52.5C53.8256 333.002 55.0964 333.529 56.0338 334.466C56.9711 335.404 57.4984 336.674 57.5 338V346.382C57.8917 346.822 58.1801 347.344 58.344 347.91C58.5079 348.475 58.5433 349.071 58.4474 349.652C58.3515 350.233 58.1269 350.785 57.7899 351.268C57.453 351.752 57.0122 352.153 56.5 352.444ZM56.5 349C56.5 348.604 56.3827 348.218 56.1629 347.889C55.9432 347.56 55.6308 347.304 55.2654 347.152C54.8999 347.001 54.4978 346.961 54.1098 347.038C53.7219 347.116 53.3655 347.306 53.0858 347.586C52.8061 347.865 52.6156 348.222 52.5384 348.61C52.4613 348.998 52.5009 349.4 52.6522 349.765C52.8036 350.131 53.06 350.443 53.3889 350.663C53.7178 350.883 54.1044 351 54.5 351C55.0304 351 55.5391 350.789 55.9142 350.414C56.2893 350.039 56.5 349.53 56.5 349Z" fill="#266AEB"/>
</g>
<g clip-path="url(#clip4_0_808)">
<path d="M57.5 418H54.5C53.9696 418 53.4609 418.211 53.0858 418.586C52.7107 418.961 52.5 419.47 52.5 420C52.5 420.53 52.2893 421.039 51.9142 421.414C51.5391 421.789 51.0304 422 50.5 422H46.5C45.9696 422 45.4609 421.789 45.0858 421.414C44.7107 421.039 44.5 420.53 44.5 420C44.5 419.47 44.2893 418.961 43.9142 418.586C43.5391 418.211 43.0304 418 42.5 418H39.5C38.7044 418 37.9413 418.316 37.3787 418.879C36.8161 419.441 36.5 420.204 36.5 421V425C36.5016 426.326 37.0289 427.596 37.9662 428.534C38.9036 429.471 40.1744 429.998 41.5 430H55.5C56.8256 429.998 58.0964 429.471 59.0338 428.534C59.9711 427.596 60.4984 426.326 60.5 425V421C60.5 420.204 60.1839 419.441 59.6213 418.879C59.0587 418.316 58.2956 418 57.5 418ZM58.5 425C58.5 425.796 58.1839 426.559 57.6213 427.121C57.0587 427.684 56.2956 428 55.5 428H41.5C40.7044 428 39.9413 427.684 39.3787 427.121C38.8161 426.559 38.5 425.796 38.5 425V421C38.5 420.735 38.6054 420.48 38.7929 420.293C38.9804 420.105 39.2348 420 39.5 420H42.5C42.5 421.061 42.9214 422.078 43.6716 422.828C44.4217 423.579 45.4391 424 46.5 424H50.5C51.5609 424 52.5783 423.579 53.3284 422.828C54.0786 422.078 54.5 421.061 54.5 420H57.5C57.7652 420 58.0196 420.105 58.2071 420.293C58.3946 420.48 58.5 420.735 58.5 421V425Z" fill="white"/>
<path d="M39.5 416H57.5C57.7652 416 58.0196 415.895 58.2071 415.707C58.3946 415.52 58.5 415.265 58.5 415C58.5 414.735 58.3946 414.48 58.2071 414.293C58.0196 414.105 57.7652 414 57.5 414H39.5C39.2348 414 38.9804 414.105 38.7929 414.293C38.6054 414.48 38.5 414.735 38.5 415C38.5 415.265 38.6054 415.52 38.7929 415.707C38.9804 415.895 39.2348 416 39.5 416Z" fill="white"/>
<path d="M39.5 412H57.5C57.7652 412 58.0196 411.895 58.2071 411.707C58.3946 411.52 58.5 411.265 58.5 411C58.5 410.735 58.3946 410.48 58.2071 410.293C58.0196 410.105 57.7652 410 57.5 410H39.5C39.2348 410 38.9804 410.105 38.7929 410.293C38.6054 410.48 38.5 410.735 38.5 411C38.5 411.265 38.6054 411.52 38.7929 411.707C38.9804 411.895 39.2348 412 39.5 412Z" fill="white"/>
</g>
<g clip-path="url(#clip5_0_808)">
<path d="M59.5 484H41.5C40.7044 484 39.9413 483.684 39.3787 483.121C38.8161 482.559 38.5 481.796 38.5 481V463C38.5 462.735 38.3946 462.48 38.2071 462.293C38.0196 462.105 37.7652 462 37.5 462C37.2348 462 36.9804 462.105 36.7929 462.293C36.6054 462.48 36.5 462.735 36.5 463V481C36.5016 482.326 37.0289 483.596 37.9662 484.534C38.9036 485.471 40.1744 485.998 41.5 486H59.5C59.7652 486 60.0196 485.895 60.2071 485.707C60.3946 485.52 60.5 485.265 60.5 485C60.5 484.735 60.3946 484.48 60.2071 484.293C60.0196 484.105 59.7652 484 59.5 484Z" fill="white"/>
<path d="M42.5 482C42.7652 482 43.0196 481.895 43.2071 481.707C43.3946 481.52 43.5 481.265 43.5 481V474C43.5 473.735 43.3946 473.48 43.2071 473.293C43.0196 473.105 42.7652 473 42.5 473C42.2348 473 41.9804 473.105 41.7929 473.293C41.6054 473.48 41.5 473.735 41.5 474V481C41.5 481.265 41.6054 481.52 41.7929 481.707C41.9804 481.895 42.2348 482 42.5 482Z" fill="white"/>
<path d="M46.5 472V481C46.5 481.265 46.6054 481.52 46.7929 481.707C46.9804 481.895 47.2348 482 47.5 482C47.7652 482 48.0196 481.895 48.2071 481.707C48.3946 481.52 48.5 481.265 48.5 481V472C48.5 471.735 48.3946 471.48 48.2071 471.293C48.0196 471.105 47.7652 471 47.5 471C47.2348 471 46.9804 471.105 46.7929 471.293C46.6054 471.48 46.5 471.735 46.5 472Z" fill="white"/>
<path d="M51.5 475V481C51.5 481.265 51.6054 481.52 51.7929 481.707C51.9804 481.895 52.2348 482 52.5 482C52.7652 482 53.0196 481.895 53.2071 481.707C53.3946 481.52 53.5 481.265 53.5 481V475C53.5 474.735 53.3946 474.48 53.2071 474.293C53.0196 474.105 52.7652 474 52.5 474C52.2348 474 51.9804 474.105 51.7929 474.293C51.6054 474.48 51.5 474.735 51.5 475Z" fill="white"/>
<path d="M56.5 471V481C56.5 481.265 56.6054 481.52 56.7929 481.707C56.9804 481.895 57.2348 482 57.5 482C57.7652 482 58.0196 481.895 58.2071 481.707C58.3946 481.52 58.5 481.265 58.5 481V471C58.5 470.735 58.3946 470.48 58.2071 470.293C58.0196 470.105 57.7652 470 57.5 470C57.2348 470 56.9804 470.105 56.7929 470.293C56.6054 470.48 56.5 470.735 56.5 471Z" fill="white"/>
<path d="M42.5 471C42.7652 471 43.0195 470.894 43.207 470.707L46.793 467.121C46.9836 466.939 47.2367 466.838 47.5 466.838C47.7632 466.838 48.0164 466.939 48.207 467.121L50.379 469.293C50.9416 469.855 51.7045 470.171 52.5 470.171C53.2955 470.171 54.0584 469.855 54.621 469.293L60.207 463.707C60.3891 463.518 60.4899 463.266 60.4876 463.004C60.4854 462.741 60.3802 462.491 60.1948 462.305C60.0094 462.12 59.7586 462.015 59.4964 462.012C59.2342 462.01 58.9816 462.111 58.793 462.293L53.207 467.878C53.0194 468.065 52.7651 468.171 52.5 468.171C52.2348 468.171 51.9805 468.065 51.793 467.878L49.621 465.707C49.0584 465.145 48.2955 464.829 47.5 464.829C46.7045 464.829 45.9416 465.145 45.379 465.707L41.793 469.293C41.6532 469.433 41.558 469.611 41.5194 469.805C41.4808 469.999 41.5006 470.2 41.5763 470.383C41.652 470.565 41.7801 470.721 41.9445 470.831C42.1089 470.941 42.3022 471 42.5 471Z" fill="white"/>
</g>
<g clip-path="url(#clip6_0_808)">
<path d="M55.213 530H50.5C49.9695 530 49.4608 529.789 49.0858 529.414C48.7107 529.039 48.5 528.53 48.5 528V523.274C48.5013 522.814 48.3969 522.36 48.1947 521.947C47.9925 521.533 47.698 521.172 47.334 520.891C46.989 520.618 46.5859 520.428 46.1557 520.335C45.7255 520.242 45.2798 520.25 44.853 520.357C42.4286 520.959 40.2823 522.37 38.7689 524.357C37.2556 526.345 36.4658 528.789 36.5303 531.286C36.5948 533.783 37.5097 536.183 39.1236 538.09C40.7375 539.997 42.9538 541.295 45.406 541.771C48.1631 542.299 51.0176 541.752 53.385 540.244C55.7524 538.735 57.4535 536.379 58.14 533.657C58.2474 533.23 58.2553 532.783 58.1629 532.352C58.0704 531.922 57.8803 531.518 57.607 531.172C57.3224 530.808 56.9592 530.514 56.5445 530.311C56.1299 530.108 55.6746 530.002 55.213 530ZM56.201 533.168C55.8181 534.71 55.0325 536.122 53.9246 537.261C52.8167 538.4 51.4263 539.224 49.8955 539.649C48.3647 540.074 46.7485 540.084 45.2122 539.68C43.6759 539.275 42.2746 538.47 41.1517 537.346C40.0288 536.222 39.2245 534.82 38.8212 533.283C38.4179 531.747 38.4299 530.131 38.8562 528.6C39.2824 527.07 40.1075 525.68 41.2471 524.573C42.3866 523.466 43.7998 522.682 45.342 522.3C45.4739 522.267 45.6117 522.265 45.7444 522.295C45.8771 522.325 46.0009 522.386 46.106 522.472C46.2301 522.567 46.3307 522.689 46.4001 522.828C46.4694 522.968 46.5057 523.122 46.506 523.278V528C46.506 529.061 46.9274 530.078 47.6775 530.828C48.4277 531.579 49.4451 532 50.506 532H55.218C55.3754 532.001 55.5306 532.037 55.6719 532.106C55.8133 532.176 55.937 532.276 56.034 532.4C56.119 532.507 56.1782 532.631 56.207 532.765C56.2358 532.898 56.2334 533.036 56.2 533.168H56.201Z" fill="white"/>
<path d="M60.151 525.446C59.6906 523.753 58.7962 522.21 57.5564 520.97C56.3165 519.729 54.7742 518.833 53.082 518.372C52.9046 518.324 52.7217 518.3 52.538 518.3C52.2737 518.297 52.0116 518.347 51.7668 518.447C51.5219 518.546 51.2992 518.693 51.1115 518.879C50.9237 519.065 50.7747 519.286 50.673 519.53C50.5713 519.774 50.519 520.036 50.519 520.3V525C50.519 525.796 50.8351 526.559 51.3977 527.121C51.9603 527.684 52.7233 528 53.519 528H58.238C58.5467 527.997 58.8505 527.923 59.1259 527.783C59.4012 527.644 59.6408 527.443 59.8258 527.196C60.0109 526.949 60.1365 526.662 60.1929 526.359C60.2493 526.055 60.2349 525.743 60.151 525.446ZM57.653 526H53.515C53.2498 526 52.9954 525.895 52.8079 525.707C52.6203 525.519 52.515 525.265 52.515 525L52.507 520.307C52.5143 520.302 52.523 520.298 52.532 520.298H52.558C53.9201 520.669 55.161 521.391 56.157 522.391C57.153 523.392 57.8691 524.636 58.234 526H57.653Z" fill="white"/>
</g>
<g clip-path="url(#clip7_0_808)">
<path d="M55.081 576.14L48.816 574.051C48.6109 573.983 48.3891 573.983 48.184 574.051L41.919 576.14C40.9229 576.471 40.0564 577.107 39.4426 577.959C38.8289 578.81 38.499 579.833 38.5 580.883V586C38.5 593.563 47.7 597.74 48.094 597.914C48.2218 597.971 48.3601 598 48.5 598C48.6399 598 48.7782 597.971 48.906 597.914C49.3 597.74 58.5 593.563 58.5 586V580.883C58.501 579.833 58.1711 578.81 57.5574 577.959C56.9436 577.107 56.0771 576.471 55.081 576.14ZM56.5 586C56.5 591.455 50.181 595.033 48.5 595.889C46.817 595.036 40.5 591.469 40.5 586V580.883C40.5001 580.253 40.6983 579.64 41.0666 579.129C41.4349 578.618 41.9545 578.236 42.552 578.037L48.5 576.054L54.448 578.037C55.0455 578.236 55.5651 578.618 55.9334 579.129C56.3017 579.64 56.4999 580.253 56.5 580.883V586Z" fill="white"/>
<path d="M51.8 582.3L47.612 586.5L45.368 584.16C45.2779 584.062 45.1691 583.982 45.0478 583.926C44.9266 583.871 44.7954 583.84 44.6621 583.835C44.5287 583.831 44.3958 583.854 44.2713 583.902C44.1467 583.949 44.033 584.022 43.9368 584.114C43.8407 584.207 43.764 584.318 43.7113 584.44C43.6586 584.563 43.631 584.695 43.6301 584.828C43.6292 584.962 43.655 585.094 43.706 585.217C43.7569 585.34 43.8321 585.452 43.927 585.546L46.233 587.946C46.405 588.132 46.6128 588.281 46.844 588.384C47.0752 588.487 47.3249 588.542 47.578 588.546H47.611C47.859 588.547 48.1048 588.498 48.334 588.404C48.5631 588.309 48.7712 588.169 48.946 587.993L53.218 583.721C53.3113 583.628 53.3853 583.517 53.4359 583.396C53.4865 583.274 53.5126 583.143 53.5127 583.012C53.5129 582.88 53.487 582.749 53.4367 582.627C53.3864 582.506 53.3126 582.395 53.2195 582.302C53.1264 582.208 53.0158 582.134 52.8941 582.084C52.7723 582.033 52.6419 582.007 52.51 582.007C52.3782 582.007 52.2477 582.033 52.1258 582.083C52.004 582.133 51.8933 582.207 51.8 582.3Z" fill="white"/>
</g>
<g clip-path="url(#clip8_0_808)">
<path d="M55.5 632H54.5V631C54.5 630.735 54.3946 630.48 54.2071 630.293C54.0196 630.105 53.7652 630 53.5 630C53.2348 630 52.9804 630.105 52.7929 630.293C52.6054 630.48 52.5 630.735 52.5 631V632H44.5V631C44.5 630.735 44.3946 630.48 44.2071 630.293C44.0196 630.105 43.7652 630 43.5 630C43.2348 630 42.9804 630.105 42.7929 630.293C42.6054 630.48 42.5 630.735 42.5 631V632H41.5C40.1744 632.002 38.9036 632.529 37.9662 633.466C37.0289 634.404 36.5016 635.674 36.5 637V649C36.5016 650.326 37.0289 651.596 37.9662 652.534C38.9036 653.471 40.1744 653.998 41.5 654H55.5C56.8256 653.998 58.0964 653.471 59.0338 652.534C59.9711 651.596 60.4984 650.326 60.5 649V637C60.4984 635.674 59.9711 634.404 59.0338 633.466C58.0964 632.529 56.8256 632.002 55.5 632ZM38.5 637C38.5 636.204 38.8161 635.441 39.3787 634.879C39.9413 634.316 40.7044 634 41.5 634H55.5C56.2956 634 57.0587 634.316 57.6213 634.879C58.1839 635.441 58.5 636.204 58.5 637V638H38.5V637ZM55.5 652H41.5C40.7044 652 39.9413 651.684 39.3787 651.121C38.8161 650.559 38.5 649.796 38.5 649V640H58.5V649C58.5 649.796 58.1839 650.559 57.6213 651.121C57.0587 651.684 56.2956 652 55.5 652Z" fill="white"/>
<path d="M48.5 646.5C49.3284 646.5 50 645.828 50 645C50 644.172 49.3284 643.5 48.5 643.5C47.6716 643.5 47 644.172 47 645C47 645.828 47.6716 646.5 48.5 646.5Z" fill="white"/>
<path d="M43.5 646.5C44.3284 646.5 45 645.828 45 645C45 644.172 44.3284 643.5 43.5 643.5C42.6716 643.5 42 644.172 42 645C42 645.828 42.6716 646.5 43.5 646.5Z" fill="white"/>
<path d="M53.5 646.5C54.3284 646.5 55 645.828 55 645C55 644.172 54.3284 643.5 53.5 643.5C52.6716 643.5 52 644.172 52 645C52 645.828 52.6716 646.5 53.5 646.5Z" fill="white"/>
</g>
<g clip-path="url(#clip9_0_808)">
<path d="M60.5 709C60.5 709.265 60.3947 709.52 60.2071 709.707C60.0196 709.895 59.7652 710 59.5 710H37.5C37.2348 710 36.9805 709.895 36.7929 709.707C36.6054 709.52 36.5 709.265 36.5 709C36.5 708.735 36.6054 708.48 36.7929 708.293C36.9805 708.105 37.2348 708 37.5 708H59.5C59.7652 708 60.0196 708.105 60.2071 708.293C60.3947 708.48 60.5 708.735 60.5 709ZM36.791 694.552C36.5755 694.152 36.4757 693.701 36.5027 693.247C36.5298 692.794 36.6826 692.357 36.944 691.986C37.3713 691.359 37.9435 690.845 38.612 690.486L46.113 686.582C46.8503 686.199 47.669 685.999 48.5 685.999C49.331 685.999 50.1498 686.199 50.887 686.582L58.387 690.489C59.0556 690.848 59.6278 691.362 60.055 691.989C60.3165 692.36 60.4693 692.797 60.4963 693.25C60.5233 693.704 60.4235 694.155 60.208 694.555C59.976 694.994 59.6281 695.361 59.2021 695.615C58.7761 695.87 58.2884 696.003 57.792 696H57.5V704H58.5C58.7652 704 59.0196 704.105 59.2071 704.293C59.3947 704.48 59.5 704.735 59.5 705C59.5 705.265 59.3947 705.52 59.2071 705.707C59.0196 705.895 58.7652 706 58.5 706H38.5C38.2348 706 37.9805 705.895 37.7929 705.707C37.6054 705.52 37.5 705.265 37.5 705C37.5 704.735 37.6054 704.48 37.7929 704.293C37.9805 704.105 38.2348 704 38.5 704H39.5V696H39.208C38.7112 696.003 38.223 695.87 37.7968 695.614C37.3706 695.359 37.0227 694.992 36.791 694.552ZM41.5 704H44.5V696H41.5V704ZM46.5 696V704H50.5V696H46.5ZM55.5 696H52.5V704H55.5V696ZM38.563 693.625C38.6258 693.741 38.7191 693.837 38.8329 693.903C38.9467 693.969 39.0765 694.003 39.208 694H57.792C57.9236 694.003 58.0534 693.969 58.1671 693.903C58.2809 693.837 58.3743 693.741 58.437 693.625C58.4827 693.549 58.5048 693.46 58.5006 693.371C58.4963 693.282 58.4658 693.197 58.413 693.125C58.1707 692.765 57.8452 692.469 57.464 692.261L49.964 688.354C49.512 688.119 49.0103 687.997 48.501 687.997C47.9918 687.997 47.49 688.119 47.038 688.354L39.538 692.261C39.157 692.469 38.8316 692.766 38.589 693.126C38.5361 693.197 38.5054 693.283 38.5008 693.372C38.4962 693.46 38.5178 693.549 38.563 693.625Z" fill="white"/>
</g>
<defs>
<clipPath id="clip0_0_808">
<rect width="40" height="40" fill="white" transform="translate(28.5 34)"/>
</clipPath>
<clipPath id="clip1_0_808">
<rect width="24" height="24" fill="white" transform="translate(36.5 148)"/>
</clipPath>
<clipPath id="clip2_0_808">
<rect width="24" height="24" fill="white" transform="translate(36.5 260)"/>
</clipPath>
<clipPath id="clip3_0_808">
<rect width="24" height="24" fill="white" transform="translate(36.5 333)"/>
</clipPath>
<clipPath id="clip4_0_808">
<rect width="24" height="24" fill="white" transform="translate(36.5 406)"/>
</clipPath>
<clipPath id="clip5_0_808">
<rect width="24" height="24" fill="white" transform="translate(36.5 462)"/>
</clipPath>
<clipPath id="clip6_0_808">
<rect width="24" height="24" fill="white" transform="translate(36.5 518)"/>
</clipPath>
<clipPath id="clip7_0_808">
<rect width="24" height="24" fill="white" transform="translate(36.5 574)"/>
</clipPath>
<clipPath id="clip8_0_808">
<rect width="24" height="24" fill="white" transform="translate(36.5 630)"/>
</clipPath>
<clipPath id="clip9_0_808">
<rect width="24" height="24" fill="white" transform="translate(36.5 686)"/>
</clipPath>
</defs>
</svg>
