<svg width="18" height="18" viewBox="0 0 18 18" fill="none" xmlns="http://www.w3.org/2000/svg">
<path d="M7.24443 14.483C8.8533 14.483 10.4161 13.9462 11.6854 12.9576L16.474 17.7462C16.8317 18.0917 17.4017 18.0818 17.7472 17.724C18.0842 17.3751 18.0842 16.8219 17.7472 16.473L12.9586 11.6844C15.4118 8.5265 14.8406 3.97782 11.6827 1.52464C8.52475 -0.928536 3.97612 -0.357275 1.52294 2.80063C-0.930245 5.95854 -0.358984 10.5072 2.79892 12.9604C4.07027 13.948 5.63451 14.4838 7.24443 14.483ZM3.39686 3.3958C5.52184 1.27078 8.96711 1.27074 11.0921 3.39572C13.2171 5.5207 13.2172 8.96597 11.0922 11.091C8.96723 13.216 5.52196 13.216 3.39694 11.0911C3.3969 11.091 3.3969 11.091 3.39686 11.091C1.27188 8.98149 1.25936 5.54878 3.36886 3.4238C3.37818 3.41444 3.3875 3.40512 3.39686 3.3958Z" fill="#A0A7B3"/>
</svg>
